# xmcd
# Copyright (C) 1995-1998 Ti Kan
#
# Track frame offsets:
#       150
#       23293
#       39200
#       57275
#       88021
#
# Disc length: 1322 seconds
#
# Revision: 0
# Processed by: cddbd v1.4PL0 Copyright (c) Steve Scherf et al.
# Submitted via: CD-Transfer v1.0
#
DISCID=2b052805
DTITLE=Dramaqueens - Dramaqueens
DYEAR=2002
DGENRE=
TTITLE0=Tarmac
TTITLE1=Trip To Bliss
TTITLE2=Breathe
TTITLE3=Pain In The Brain
TTITLE4=Climax
EXTD=
EXTT0=
EXTT1=
EXTT2=
EXTT3=
EXTT4=
PLAYORDER=
